Coordinates
version=1
nRows=8
nColumns=46
inDegrees=yes

Units are S.I. units (second, meters, Newtons, ...)
Angles are in degrees.

endheader
time	pelvis_tilt	pelvis_list	pelvis_rotation	pelvis_tx	pelvis_ty	pelvis_tz	bb_angle	bb_tx	bb_ty	bb_tz	hip_flexion_r	hip_adduction_r	hip_rotation_r	knee_angle_r	knee_angle_r_beta	ankle_angle_r	subtalar_angle_r	mtp_angle_r	crank_angle_r	hip_flexion_l	hip_adduction_l	hip_rotation_l	knee_angle_l	knee_angle_l_beta	ankle_angle_l	subtalar_angle_l	mtp_angle_l	crank_angle_l	lumbar_extension	lumbar_bending	lumbar_rotation	arm_flex_r	arm_add_r	arm_rot_r	elbow_flex_r	pro_sup_r	wrist_flex_r	wrist_dev_r	arm_flex_l	arm_add_l	arm_rot_l	elbow_flex_l	pro_sup_l	wrist_flex_l	wrist_dev_l
      2.50500000	    -13.06432299	      7.28583452	      4.79162577	      0.17678759	      1.06722765	     -0.30195273	      0.00000000	      0.50000000	      0.00000000	      0.25000000	     41.21521251	    -13.42810220	     -0.63951563	     36.22938786	      0.63232210	    -25.15614666	     -7.72762028	      0.00000000	      0.00000000	     88.06046183	      0.59036863	      1.00655495	    112.92797739	      1.97096502	      8.61031520	     -4.25528559	      0.00000000	      0.00000000	    -63.85335619	     -1.16828151	     -5.44683043	     89.59394669	     -8.16947197	     25.28226888	     40.90678445	     30.59318700	      0.00000000	      0.00000000	     88.82020416	     -3.91141785	     23.83241772	     40.67481475	     35.75461077	      0.00000000	      0.00000000
      2.51000000	    -13.00287502	      7.48170677	      4.72161021	      0.17588781	      1.06692642	     -0.30144771	      0.00000000	      0.50000000	      0.00000000	      0.25000000	     41.46190453	    -13.46221638	     -0.33888233	     37.54114985	      0.65521667	    -24.97157344	     -8.64307123	      0.00000000	      0.00000000	     88.04387323	      0.45897025	      0.65946002	    112.26801689	      1.95944654	      9.66112872	     -4.18424703	      0.00000000	      0.00000000	    -63.97397194	     -1.47831867	     -5.54135149	     89.59481325	     -8.35607343	     25.07579318	     40.98388184	     30.88345172	      0.00000000	      0.00000000	     88.79120767	     -3.68229841	     23.27255858	     41.02999123	     35.94956425	      0.00000000	      0.00000000
      2.51500000	    -12.96820504	      7.60400539	      4.67244463	      0.17506604	      1.06637268	     -0.30089428	      0.00000000	      0.50000000	      0.00000000	      0.25000000	     41.78363234	    -13.42085059	     -0.00455632	     39.02800261	      0.68116715	    -24.46103009	     -9.52233489	      0.00000000	      0.00000000	     87.99100970	      0.35817776	      0.40561713	    111.54938230	      1.94690400	     10.80228615	     -4.16044850	      0.00000000	      0.00000000	    -64.01705826	     -1.75960704	     -5.49319321	     89.59495323	     -8.76079960	     25.34866925	     40.94634739	     31.34547709	      0.00000000	      0.00000000	     88.81497155	     -3.21697094	     22.68837023	     41.00508978	     35.96265492	      0.00000000	      0.00000000
      2.52000000	    -12.89984437	      7.66975405	      4.64396685	      0.17419152	      1.06581274	     -0.30052789	      0.00000000	      0.50000000	      0.00000000	      0.25000000	     42.13182403	    -13.33913269	      0.32645248	     40.59889859	      0.70858445	    -24.23217391	    -10.55373421	      0.00000000	      0.00000000	     87.85706250	      0.33696630	      0.23141427	    110.76335419	      1.93318522	     11.95596770	     -4.12113292	      0.00000000	      0.00000000	    -64.10964909	     -1.94801249	     -5.52472784	     89.60101359	     -8.92031379	     25.31416292	     40.80845329	     32.00816763	      0.00000000	      0.00000000	     88.78856941	     -2.91989339	     22.02729369	     41.28614609	     36.20625175	      0.00000000	      0.00000000
      2.52500000	    -12.81429700	      7.72158434	      4.65743815	      0.17335625	      1.06521042	     -0.30014859	      0.00000000	      0.50000000	      0.00000000	      0.25000000	     42.51072187	    -13.25919420	      0.61416289	     42.27133112	      0.73777391	    -23.95380350	    -11.62054333	      0.00000000	      0.00000000	     87.62810385	      0.35866549	      0.07170406	    109.87838347	      1.91773957	     13.13074304	     -4.07849726	      0.00000000	      0.00000000	    -64.20415800	     -2.10534457	     -5.53744390	     89.60233214	     -9.08492909	     25.11621266	     40.72356347	     32.54608881	      0.00000000	      0.00000000	     88.78581217	     -2.46353122	     21.13454206	     41.39697440	     36.41269427	      0.00000000	      0.00000000
      2.53000000	    -12.67578259	      7.73792357	      4.62575807	      0.17262088	      1.06463819	     -0.29974176	      0.00000000	      0.50000000	      0.00000000	      0.25000000	     42.86530493	    -13.09724906	      0.96738895	     43.98301368	      0.76764840	    -23.73667194	    -12.60337235	      0.00000000	      0.00000000	     87.25843502	      0.36078977	     -0.03375328	    108.90784440	      1.90080047	     14.27762678	     -4.07799340	      0.00000000	      0.00000000	    -64.36074953	     -2.26754754	     -5.39399872	     89.60186214	     -9.83303698	     26.55014729	     41.54133935	     30.86711376	      0.00000000	      0.00000000	     88.83400298	     -2.09003220	     20.92942620	     41.56342264	     36.20620503	      0.00000000	      0.00000000
      2.53500000	    -12.49389564	      7.85814653	      4.55476802	      0.17191650	      1.06407131	     -0.29950115	      0.00000000	      0.50000000	      0.00000000	      0.25000000	     43.28099015	    -13.02609785	      1.39519133	     45.84879875	      0.80021250	    -23.32667605	    -13.44759317	      0.00000000	      0.00000000	     86.74128733	      0.44254297	     -0.23152420	    107.85480293	      1.88242143	     15.50370782	     -4.24026748	      0.00000000	      0.00000000	    -64.63679963	     -2.47260099	     -5.43637514	     89.59203415	    -10.02058940	     25.65568215	     42.18406638	     31.36379457	      0.00000000	      0.00000000	     88.78601353	     -1.87964120	     20.29565041	     42.49514411	     36.60443948	      0.00000000	      0.00000000
      2.54000000	    -12.27424407	      7.72326583	      4.50024575	      0.17124918	      1.06343235	     -0.29932988	      0.00000000	      0.50000000	      0.00000000	      0.25000000	     43.63476974	    -12.73186132	      1.71376689	     47.68328526	      0.83223033	    -23.15839083	    -14.17349026	      0.00000000	      0.00000000	     86.17613218	      0.47861036	     -0.17535553	    106.72904421	      1.86277323	     16.58754259	     -4.49910277	      0.00000000	      0.00000000	    -64.77237369	     -2.46141585	     -5.26647588	     89.60345177	    -10.03298688	     25.70715957	     42.05360489	     31.27752158	      0.00000000	      0.00000000	     88.81002540	     -1.75800454	     20.27340641	     42.37265488	     36.56008727	      0.00000000	      0.00000000
